<svg id="svg" xmlns="http://www.w3.org/2000/svg" xmlns:xlink="http://www.w3.org/1999/xlink" width="400" height="202.6974951830443" viewBox="0, 0, 400,202.6974951830443"><g id="svgg"><path id="path0" d="M71.852 5.485 C 65.670 8.544,60.720 16.788,59.203 26.549 C 58.142 33.369,57.426 33.715,53.173 29.462 C 48.103 24.393,47.738 19.837,51.693 10.995 C 54.062 5.699,53.720 4.843,49.758 6.150 C 33.709 11.447,38.809 40.077,55.800 40.077 C 59.211 40.077,59.026 39.651,60.183 50.198 C 63.409 79.604,41.841 104.364,21.730 94.343 C -2.068 82.484,15.188 36.400,40.452 44.346 C 45.794 46.027,46.310 45.529,43.913 41.006 C 38.670 31.114,24.083 31.482,13.799 41.765 C -2.058 57.623,1.713 90.110,20.604 100.392 C 47.958 115.280,80.460 79.597,73.768 42.026 L 72.673 35.882 74.680 34.360 C 92.501 20.836,90.113 -3.554,71.852 5.485 M80.684 9.854 C 84.816 12.482,82.827 20.549,76.482 26.894 C 71.803 31.574,71.470 31.480,70.566 25.224 C 69.252 16.121,75.533 6.579,80.684 9.854 M234.678 21.773 C 227.315 29.149,230.742 39.850,239.185 35.844 C 247.425 31.934,248.313 18.497,240.331 18.497 C 238.554 18.497,237.116 19.330,234.678 21.773 M212.082 23.998 C 208.398 25.060,203.271 30.563,200.440 36.495 C 198.251 41.081,197.759 41.618,195.749 41.618 C 194.317 41.618,193.214 42.159,192.705 43.109 C 191.566 45.238,191.678 45.472,193.834 45.472 C 196.398 45.472,196.602 44.754,189.590 60.369 C 181.574 78.222,176.319 85.608,169.638 88.417 C 164.442 90.601,165.187 86.154,172.727 69.979 C 182.232 49.587,181.397 40.848,169.942 40.848 C 165.409 40.848,162.453 42.362,157.418 47.262 L 153.372 51.200 153.372 48.063 C 153.372 44.141,150.651 40.848,147.412 40.848 C 145.315 40.848,144.942 41.496,137.633 57.823 C 127.837 79.707,123.392 86.608,117.853 88.540 C 112.878 90.274,113.422 88.069,123.474 65.768 L 131.265 48.479 129.747 46.445 C 123.022 37.438,104.117 39.478,91.816 50.537 C 80.374 60.825,73.235 80.573,77.375 90.483 C 80.471 97.893,89.551 97.505,98.002 89.600 L 101.734 86.109 101.734 88.586 C 101.734 96.813,112.120 98.006,121.580 90.866 L 125.626 87.811 125.626 89.798 C 125.626 92.324,128.829 95.568,131.322 95.568 C 133.023 95.568,133.871 94.268,138.990 83.815 C 151.184 58.914,162.447 44.232,166.367 48.125 C 167.746 49.495,166.756 52.569,161.637 62.813 C 154.645 76.805,152.458 84.684,154.147 89.802 C 156.869 98.050,167.464 97.357,176.759 88.323 L 180.347 84.836 180.347 88.312 C 180.347 97.842,191.958 98.398,201.550 89.327 L 205.780 85.326 205.780 88.194 C 205.780 98.362,218.855 98.036,229.021 87.614 L 233.526 82.996 233.526 85.453 C 233.526 97.079,244.906 99.254,255.227 89.600 L 258.960 86.109 258.960 88.586 C 258.960 98.360,272.260 97.804,282.200 87.614 L 286.705 82.996 286.705 85.633 C 286.705 87.083,287.388 89.543,288.222 91.100 L 289.740 93.931 287.120 95.550 C 278.679 100.767,274.067 112.862,277.988 119.501 C 279.264 121.660,279.248 121.739,277.236 123.322 C 272.665 126.917,273.023 134.875,277.756 134.875 C 281.483 134.875,285.880 129.219,284.942 125.632 C 284.571 124.213,284.912 124.085,289.061 124.085 C 300.408 124.085,309.350 117.227,316.492 103.048 C 317.942 100.168,319.724 97.628,320.451 97.404 C 325.966 95.703,331.556 92.285,336.376 87.669 C 339.363 84.807,341.849 82.466,341.900 82.466 C 341.952 82.466,342.187 83.910,342.424 85.675 C 343.411 93.036,347.685 95.954,357.477 95.954 C 382.240 95.954,404.964 55.061,387.417 42.075 C 383.723 39.341,371.697 39.723,366.089 42.751 C 357.086 47.613,342.967 65.597,342.967 72.202 C 342.967 77.100,325.823 93.709,322.182 92.338 C 321.835 92.207,325.909 82.291,331.235 70.303 L 340.919 48.506 339.391 46.458 C 329.447 33.140,301.577 43.607,291.754 64.349 C 290.347 67.319,288.130 72.004,286.827 74.759 C 281.486 86.050,270.116 94.179,272.401 85.072 C 272.679 83.963,276.413 75.276,280.699 65.768 L 288.491 48.479 286.972 46.445 C 280.248 37.438,261.342 39.478,249.041 50.537 C 244.186 54.903,237.983 64.056,236.190 69.501 C 233.042 79.060,222.837 90.985,219.546 88.951 C 217.947 87.963,219.572 83.375,228.831 62.742 C 239.799 38.303,239.277 40.848,233.320 40.848 C 224.629 40.848,222.933 42.729,214.563 61.657 C 207.065 78.610,200.498 87.886,195.376 88.756 C 191.989 89.331,193.152 85.227,202.069 65.151 L 210.790 45.515 214.013 45.493 C 216.739 45.475,217.504 45.096,218.971 43.036 L 220.705 40.600 216.768 41.066 L 212.831 41.532 214.018 38.685 C 214.671 37.119,215.993 34.277,216.956 32.370 C 217.919 30.462,219.249 27.601,219.911 26.012 L 221.116 23.121 217.880 23.191 C 216.100 23.229,213.491 23.593,212.082 23.998 M376.571 44.520 C 383.983 49.470,373.737 85.114,363.148 91.214 C 359.645 93.232,357.127 92.103,356.392 88.185 C 353.433 72.410,368.738 39.290,376.571 44.520 M116.389 45.871 C 118.473 48.382,102.063 80.604,95.725 86.448 C 82.663 98.491,91.857 65.500,105.785 50.347 C 110.363 45.366,114.515 43.613,116.389 45.871 M273.615 45.871 C 275.698 48.382,259.288 80.604,252.950 86.448 C 239.889 98.491,249.082 65.500,263.010 50.347 C 267.589 45.366,271.741 43.613,273.615 45.871 M326.726 45.789 C 328.578 48.021,313.617 78.278,307.254 85.170 C 299.994 93.035,297.701 88.082,302.374 74.624 C 308.635 56.591,322.281 40.433,326.726 45.789 M307.514 93.889 C 307.514 95.698,298.560 112.077,295.951 115.042 C 287.963 124.116,283.369 120.335,288.573 108.969 C 291.606 102.343,298.525 95.747,304.250 94.024 C 307.094 93.167,307.514 93.150,307.514 93.889 M107.153 112.717 C 100.771 116.572,95.519 125.542,94.259 134.738 C 93.855 137.687,93.091 138.915,89.414 142.530 C 78.173 153.579,75.019 175.313,83.982 179.948 C 94.358 185.314,104.382 176.585,118.903 149.538 C 122.664 142.533,125.555 137.495,125.327 138.343 C 121.710 151.797,122.036 171.484,125.876 171.484 C 126.905 171.484,127.854 170.012,129.419 165.990 C 134.652 152.540,145.124 137.015,153.556 130.206 L 156.437 127.880 152.774 132.726 C 137.336 153.152,134.760 178.805,148.148 178.805 C 151.160 178.805,151.927 177.669,150.129 175.870 C 148.642 174.384,149.136 165.206,151.090 157.996 C 156.400 138.405,165.280 123.355,175.194 117.148 C 181.646 113.108,181.112 112.501,172.824 114.455 C 160.526 117.355,149.404 125.766,138.181 140.655 C 134.986 144.894,132.282 148.466,132.172 148.593 C 131.857 148.957,132.567 141.912,133.399 136.416 C 134.866 126.719,137.249 120.169,140.489 116.929 C 145.174 112.244,143.009 110.130,136.777 113.307 L 133.729 114.861 126.963 112.537 C 117.614 109.325,112.694 109.370,107.153 112.717 M128.111 117.912 L 130.210 117.919 126.010 124.087 C 123.700 127.480,118.357 137.104,114.137 145.475 C 102.549 168.461,97.106 175.701,90.480 176.944 C 79.226 179.055,79.600 160.092,91.037 148.655 L 94.168 145.523 95.411 147.328 C 98.442 151.730,102.799 152.388,106.201 148.958 L 108.285 146.857 104.506 146.308 C 96.843 145.194,97.491 142.241,105.610 141.280 C 110.159 140.741,110.581 139.423,106.936 137.130 C 104.996 135.909,103.607 135.643,100.771 135.949 C 96.575 136.401,96.424 136.075,98.602 131.277 C 102.426 122.855,112.930 116.739,122.158 117.562 C 124.277 117.751,126.956 117.909,128.111 117.912 M243.494 136.994 C 238.907 151.078,229.215 168.496,224.404 171.303 C 219.587 174.114,219.917 172.697,228.623 153.193 C 236.233 136.146,235.905 137.958,231.377 137.958 C 225.738 137.958,223.672 140.224,218.215 152.402 C 212.808 164.468,210.481 168.591,207.262 171.810 C 200.380 178.692,203.446 166.166,213.426 146.628 L 217.855 137.958 215.184 137.958 C 208.791 137.958,202.703 145.324,197.666 159.152 C 194.939 166.641,187.299 174.815,186.055 171.575 C 185.819 170.959,188.305 164.466,191.580 157.146 C 199.233 140.039,198.489 137.618,185.742 138.133 C 175.393 138.552,166.707 144.853,161.499 155.720 C 153.143 173.155,161.681 184.457,174.374 172.763 C 176.472 170.829,176.493 170.827,176.493 172.495 C 176.493 179.177,187.142 178.549,193.329 171.502 L 195.761 168.732 195.761 170.968 C 195.761 177.473,203.548 179.650,208.632 174.566 C 211.746 171.452,211.946 171.375,211.946 173.291 C 211.946 175.578,214.469 177.264,217.893 177.264 C 225.392 177.264,233.249 167.998,241.101 149.891 C 245.623 139.462,245.786 139.212,246.623 141.411 C 247.719 144.296,247.381 145.549,242.714 155.894 C 235.687 171.467,235.942 177.264,243.651 177.264 C 247.384 177.264,249.212 176.386,252.987 172.778 L 255.877 170.015 255.877 172.098 C 255.877 179.831,266.748 178.792,273.823 170.383 C 275.816 168.015,275.915 167.982,275.920 169.690 C 275.923 170.677,276.448 172.487,277.087 173.712 C 278.230 175.903,278.196 175.986,275.129 178.612 C 265.739 186.650,267.056 198.084,277.369 198.066 C 285.794 198.051,292.934 192.780,297.252 183.385 C 299.010 179.561,299.612 178.963,302.861 177.809 C 307.411 176.193,313.125 171.226,316.495 165.956 C 321.145 158.688,319.363 156.928,314.543 164.027 C 310.376 170.162,303.101 176.190,301.633 174.723 C 301.484 174.573,303.988 168.581,307.197 161.406 C 316.311 141.037,315.652 143.629,312.515 140.492 C 309.829 137.806,309.794 137.796,303.849 138.081 C 292.536 138.623,285.031 144.439,278.279 157.894 C 274.213 165.996,270.083 171.400,267.427 172.095 C 264.124 172.959,264.611 171.478,275.792 146.628 L 279.693 137.958 275.866 137.958 C 270.237 137.958,267.739 140.651,262.550 152.315 C 258.017 162.504,254.919 167.509,251.217 170.624 C 246.100 174.930,246.110 171.946,251.252 160.459 C 255.753 150.407,256.076 147.333,253.104 142.882 C 250.873 139.541,245.847 134.104,244.990 134.104 C 244.685 134.104,244.012 135.405,243.494 136.994 M186.984 142.144 C 187.479 143.434,179.095 161.365,175.556 166.583 C 168.282 177.311,165.329 172.250,170.995 158.765 C 175.643 147.702,185.275 137.689,186.984 142.144 M304.906 142.151 C 305.524 143.761,295.077 164.734,291.734 168.593 C 284.634 176.791,283.707 169.465,290.150 156.069 C 295.134 145.706,303.311 137.993,304.906 142.151 M287.860 182.996 C 284.457 189.883,280.850 194.161,278.230 194.417 C 272.119 195.014,279.541 180.563,287.084 177.176 C 291.141 175.355,291.246 176.143,287.860 182.996 " stroke="none" fill="#000000" fill-rule="evenodd"></path></g></svg>